<svg height="511pt" viewBox="-40 1 511 511.99997" width="511pt" xmlns="http://www.w3.org/2000/svg"><path d="m65.796875 64.46875h59.546875v253.625h-59.546875zm0 0" fill="#ed9a00"/><path d="m191.039062 0v30.808594c0 35.605468-28.859374 64.460937-64.460937 64.460937h-30.808594v-30.808593c0-35.601563 28.859375-64.460938 64.464844-64.460938zm0 0" fill="#ed9a00"/><path d="m191.039062 0v30.808594c0 35.605468-28.859374 64.460937-64.460937 64.460937h-1.238281v-30.808593c0-35.601563 28.859375-64.460938 64.460937-64.460938zm0 0" fill="#ffdf59"/><path d="m95.769531 64.46875v30.808594h-30.808593c-35.601563 0-64.460938-28.859375-64.460938-64.464844v-30.8046875h30.808594c35.601562 0 64.460937 28.8554685 64.460937 64.4609375zm0 0" fill="#ed9a00"/><path d="m95.769531 64.46875v30.808594h-2.332031c-35.605469 0-64.464844-28.859375-64.464844-64.464844v-30.8046875h2.335938c35.601562 0 64.460937 28.8554685 64.460937 64.4609375zm0 0" fill="#ffdf59"/><path d="m95.769531 512c-4.535156 0-8.214843-3.675781-8.214843-8.214844v-155.546875c0-4.535156 3.679687-8.214843 8.214843-8.214843 4.535157 0 8.214844 3.679687 8.214844 8.214843v155.546875c0 4.539063-3.675781 8.214844-8.214844 8.214844zm0 0" fill="#ed9a00"/><path d="m191.039062 84.320312v30.808594c0 35.605469-28.859374 64.460938-64.460937 64.460938h-30.808594v-30.804688c0-35.605468 28.859375-64.464844 64.464844-64.464844zm0 0" fill="#ed9a00"/><path d="m191.039062 84.320312v30.808594c0 35.605469-28.859374 64.460938-64.460937 64.460938h-1.238281v-30.804688c0-35.605468 28.859375-64.464844 64.464844-64.464844zm0 0" fill="#ffdf59"/><path d="m95.769531 148.789062v30.808594h-30.808593c-35.601563 0-64.460938-28.859375-64.460938-64.464844v-30.804687h30.808594c35.601562 0 64.460937 28.859375 64.460937 64.460937zm0 0" fill="#ed9a00"/><path d="m95.769531 148.789062v30.808594h-2.332031c-35.605469 0-64.464844-28.859375-64.464844-64.464844v-30.804687h2.335938c35.601562 0 64.460937 28.859375 64.460937 64.460937zm0 0" fill="#ffdf59"/><path d="m191.039062 168.640625v30.808594c0 35.605469-28.859374 64.460937-64.460937 64.460937h-30.808594v-30.804687c0-35.605469 28.859375-64.464844 64.464844-64.464844zm0 0" fill="#ed9a00"/><path d="m191.039062 168.640625v30.808594c0 35.605469-28.859374 64.460937-64.460937 64.460937h-1.238281v-30.804687c0-35.605469 28.859375-64.464844 64.464844-64.464844zm0 0" fill="#ffdf59"/><path d="m95.769531 233.109375v30.808594h-30.808593c-35.601563 0-64.460938-28.859375-64.460938-64.460938v-30.808593h30.808594c35.601562 0 64.460937 28.859374 64.460937 64.460937zm0 0" fill="#ed9a00"/><path d="m95.769531 233.109375v30.808594h-2.332031c-35.605469 0-64.464844-28.859375-64.464844-64.460938v-30.808593h2.335938c35.601562 0 64.460937 28.859374 64.460937 64.460937zm0 0" fill="#ffdf59"/><path d="m95.769531 317.425781v30.808594h-30.808593c-35.601563 0-64.460938-28.859375-64.460938-64.460937v-30.808594h30.808594c35.601562 0 64.460937 28.859375 64.460937 64.460937zm0 0" fill="#ed9a00"/><path d="m95.769531 317.425781v30.808594h-2.332031c-35.605469 0-64.464844-28.859375-64.464844-64.460937v-30.808594h2.335938c35.601562 0 64.460937 28.859375 64.460937 64.460937zm0 0" fill="#ffdf59"/><path d="m191.039062 252.964844v30.808594c0 35.605468-28.859374 64.460937-64.460937 64.460937h-30.808594v-30.808594c0-35.601562 28.859375-64.460937 64.464844-64.460937zm0 0" fill="#ed9a00"/><path d="m191.039062 252.964844v30.808594c0 35.605468-28.859374 64.460937-64.460937 64.460937h-1.238281v-30.808594c0-35.601562 28.859375-64.460937 64.464844-64.460937zm0 0" fill="#ffdf59"/><g fill="#ed9a00"><path d="m306.035156 148.789062h59.546875v169.304688h-59.546875zm0 0"/><path d="m336.011719 512c-4.535157 0-8.214844-3.675781-8.214844-8.214844v-155.546875c0-4.535156 3.679687-8.214843 8.214844-8.214843 4.535156 0 8.214843 3.679687 8.214843 8.214843v155.546875c-.003906 4.539063-3.679687 8.214844-8.214843 8.214844zm0 0"/><path d="m431.28125 84.320312v30.808594c0 35.605469-28.859375 64.460938-64.464844 64.460938h-30.804687v-30.804688c0-35.605468 28.855469-64.464844 64.460937-64.464844zm0 0"/></g><path d="m431.28125 84.320312v30.808594c0 35.605469-28.859375 64.460938-64.464844 64.460938h-1.234375v-30.804688c0-35.605468 28.855469-64.464844 64.460938-64.464844zm0 0" fill="#ffdf59"/><path d="m336.011719 148.789062v30.808594h-30.808594c-35.605469 0-64.460937-28.859375-64.460937-64.464844v-30.804687h30.804687c35.605469 0 64.464844 28.859375 64.464844 64.460937zm0 0" fill="#ed9a00"/><path d="m336.011719 148.789062v30.808594h-2.335938c-35.605469 0-64.460937-28.859375-64.460937-64.464844v-30.804687h2.332031c35.605469 0 64.464844 28.859375 64.464844 64.460937zm0 0" fill="#ffdf59"/><path d="m431.28125 168.640625v30.808594c0 35.605469-28.859375 64.460937-64.464844 64.460937h-30.804687v-30.804687c0-35.605469 28.855469-64.464844 64.460937-64.464844zm0 0" fill="#ed9a00"/><path d="m431.28125 168.640625v30.808594c0 35.605469-28.859375 64.460937-64.464844 64.460937h-1.234375v-30.804687c0-35.605469 28.855469-64.464844 64.460938-64.464844zm0 0" fill="#ffdf59"/><path d="m336.011719 233.109375v30.808594h-30.808594c-35.605469 0-64.460937-28.859375-64.460937-64.460938v-30.808593h30.804687c35.605469 0 64.464844 28.859374 64.464844 64.460937zm0 0" fill="#ed9a00"/><path d="m336.011719 233.109375v30.808594h-2.335938c-35.605469 0-64.460937-28.859375-64.460937-64.460938v-30.808593h2.332031c35.605469 0 64.464844 28.859374 64.464844 64.460937zm0 0" fill="#ffdf59"/><path d="m336.011719 317.425781v30.808594h-30.808594c-35.605469 0-64.460937-28.859375-64.460937-64.460937v-30.808594h30.804687c35.605469 0 64.464844 28.859375 64.464844 64.460937zm0 0" fill="#ed9a00"/><path d="m336.011719 317.425781v30.808594h-2.335938c-35.605469 0-64.460937-28.859375-64.460937-64.460937v-30.808594h2.332031c35.605469 0 64.464844 28.859375 64.464844 64.460937zm0 0" fill="#ffdf59"/><path d="m431.28125 252.964844v30.808594c0 35.605468-28.859375 64.460937-64.464844 64.460937h-30.804687v-30.808594c0-35.601562 28.855469-64.460937 64.460937-64.460937zm0 0" fill="#ed9a00"/><path d="m431.28125 252.964844v30.808594c0 35.605468-28.859375 64.460937-64.464844 64.460937h-1.234375v-30.808594c0-35.601562 28.855469-64.460937 64.460938-64.460937zm0 0" fill="#ffdf59"/></svg>