<?xml version="1.0" encoding="iso-8859-1"?>
<!-- Generator: Adobe Illustrator 19.0.0, SVG Export Plug-In . SVG Version: 6.00 Build 0)  -->
<svg xmlns="http://www.w3.org/2000/svg" xmlns:xlink="http://www.w3.org/1999/xlink" version="1.1" id="Capa_1" x="0px" y="0px" viewBox="0 0 297.686 297.686" style="enable-background:new 0 0 297.686 297.686;" xml:space="preserve" width="512px" height="512px">
<g>
	<path d="M33.843,95.848V29.186c0-6.903-5.597-12.5-12.5-12.5s-12.5,5.597-12.5,12.5v79.5c0,6.903,5.93,12.162,12.833,12.162h29.56   c3.313-9,7.829-17,13.349-25H33.843z" fill="#006DF0"/>
	<path d="M21.676,192.848c-6.903,0-12.833,5.935-12.833,12.838v79.5c0,6.903,5.597,12.5,12.5,12.5s12.5-5.597,12.5-12.5v-67.338   h30.756c-5.521-7-10.041-16-13.355-25H21.676z" fill="#006DF0"/>
	<path d="M288.843,108.686v-79.5c0-6.903-5.597-12.5-12.5-12.5c-6.903,0-12.5,5.597-12.5,12.5v66.662h-30.238   c5.52,8,10.036,16,13.349,25h29.723C283.579,120.848,288.843,115.589,288.843,108.686z" fill="#006DF0"/>
	<path d="M263.843,217.848v67.338c0,6.903,5.597,12.5,12.5,12.5c6.903,0,12.5-5.597,12.5-12.5v-79.5   c0-6.903-5.264-12.838-12.167-12.838h-29.731c-3.314,9-7.833,18-13.355,25H263.843z" fill="#006DF0"/>
	<path d="M120.45,72.626c-35.213,11.962-60.786,45.345-60.786,84.55c0,46.551,36.178,84.888,81.178,88.908V130.186   c0-4.143,3.357-7.5,7.5-7.5c4.143,0,7.5,3.357,7.5,7.5v115.973c46-3.621,82.348-42.146,82.348-88.982   c0-39.205-25.323-72.588-60.536-84.55l10.156-12.238l33.008-39.914c4.397-5.321,3.659-13.2-1.662-17.599   c-5.319-4.397-13.196-3.65-17.593,1.673l-40.535,49.02L149.2,67.848c-0.036,0-0.071,0-0.106,0c-0.035,0-0.07,0-0.105,0   l-11.829-14.28L96.621,4.532c-4.399-5.322-12.278-6.06-17.599-1.664c-5.321,4.398-6.07,12.28-1.673,17.602l32.986,39.917   L120.45,72.626z" fill="#006DF0"/>
</g>
<g>
</g>
<g>
</g>
<g>
</g>
<g>
</g>
<g>
</g>
<g>
</g>
<g>
</g>
<g>
</g>
<g>
</g>
<g>
</g>
<g>
</g>
<g>
</g>
<g>
</g>
<g>
</g>
<g>
</g>
</svg>
