<?xml version="1.0" encoding="iso-8859-1"?>
<!-- Generator: Adobe Illustrator 19.0.0, SVG Export Plug-In . SVG Version: 6.00 Build 0)  -->
<svg version="1.1" id="Layer_1" xmlns="http://www.w3.org/2000/svg" xmlns:xlink="http://www.w3.org/1999/xlink" x="0px" y="0px"
	 viewBox="0 0 512 512" style="enable-background:new 0 0 512 512;" xml:space="preserve">
<path style="fill:#12C5DE;" d="M107.011,94.453c20.487,20.487,47.21,30.933,74.059,31.343c11.287,0.173,20.57-9.111,20.398-20.398
	c-0.411-26.848-10.857-53.572-31.343-74.059C149.77,10.984,123.259,0.541,96.585,0.004C84.889-0.231,75.441,9.217,75.677,20.913
	C76.213,47.587,86.656,74.098,107.011,94.453z"/>
<path style="fill:#69E7F5;" d="M107.011,94.453c20.487,20.487,47.21,30.933,74.059,31.343c5.64,0.086,10.781-2.19,14.491-5.896
	L81.662,5.979c-3.798,3.795-6.103,9.083-5.986,14.934C76.213,47.587,86.656,74.098,107.011,94.453z"/>
<path style="fill:#D9150B;" d="M188.871,192.61c-7.939,0-14.374-6.435-14.374-14.374V94.997c0-7.939,6.435-14.374,14.374-14.374
	s14.374,6.435,14.374,14.374v83.238C203.245,186.175,196.81,192.61,188.871,192.61z"/>
<path style="fill:#FFBD52;" d="M306.576,175.832c-2.726-3.016-6.6-4.737-10.665-4.737H82.12c-4.064,0-7.939,1.721-10.664,4.737
	c-2.726,3.016-4.047,7.044-3.637,11.087l24.82,244.943c0.744,7.339,6.924,12.925,14.302,12.925h54.952
	c3.885,0,7.603-1.572,10.31-4.358c4.459-4.589,10.431-7.117,16.814-7.117c6.384,0,12.355,2.528,16.814,7.117
	c2.707,2.786,6.426,4.358,10.31,4.358h54.951c7.377,0,13.557-5.586,14.302-12.925l24.82-244.943
	C310.623,182.876,309.301,178.847,306.576,175.832z"/>
<path style="fill:#FFDB58;" d="M188.871,171.096H82.12c-4.064,0-7.939,1.721-10.664,4.737c-2.726,3.016-4.047,7.044-3.637,11.087
	l24.82,244.943c0.744,7.339,6.924,12.925,14.302,12.925h54.952c3.885,0,7.603-1.572,10.31-4.358
	c4.459-4.589,10.431-7.117,16.814-7.117L188.871,171.096z"/>
<path style="fill:#365E94;" d="M429.881,346.129h-32.064c-29.632,0-56.184,19.848-64.571,48.268l-18.06,61.199
	c-4.805,16.284-20.021,27.656-36.999,27.656h-52.645c-12.214,0-22.151-9.937-22.151-22.151v-42.164
	c0-7.939-6.436-14.374-14.374-14.374s-14.374,6.435-14.374,14.374v42.164c0,28.065,22.834,50.899,50.899,50.899h52.645
	c29.632,0,56.184-19.848,64.572-48.268l18.06-61.199c4.805-16.285,20.02-27.656,36.998-27.656h32.064
	c7.939,0,14.374-6.435,14.374-14.374S437.819,346.129,429.881,346.129z"/>
<path style="fill:#D9150B;" d="M92.639,431.862c0.744,7.339,6.924,12.925,14.302,12.925h54.952c3.885,0,7.603-1.572,10.31-4.358
	c4.459-4.589,10.431-7.117,16.814-7.117c6.384,0,12.355,2.528,16.814,7.117c2.707,2.786,6.426,4.358,10.31,4.358h54.951
	c7.377,0,13.557-5.586,14.302-12.925l6.51-64.25H86.128L92.639,431.862z"/>
<path style="fill:#FF4429;" d="M92.639,431.862c0.744,7.339,6.924,12.925,14.302,12.925h54.952c3.885,0,7.603-1.572,10.31-4.358
	c4.459-4.589,10.431-7.117,16.814-7.117l-0.146-65.7H86.128L92.639,431.862z"/>
<path style="fill:#69E7F5;" d="M283.608,94.453c-20.487,20.487-47.21,30.933-74.06,31.343c-11.287,0.173-20.57-9.111-20.398-20.398
	c0.411-26.848,10.857-53.572,31.343-74.059c20.355-20.355,46.866-30.798,73.54-31.334c11.696-0.235,21.144,9.213,20.909,20.909
	C314.406,47.587,303.963,74.098,283.608,94.453z"/>
<path style="fill:#12C5DE;" d="M283.608,94.453c-20.487,20.487-47.21,30.933-74.06,31.343c-5.64,0.086-10.781-2.19-14.491-5.896
	L308.956,5.979c3.798,3.795,6.103,9.083,5.986,14.934C314.406,47.587,303.963,74.098,283.608,94.453z"/>
<g>
</g>
<g>
</g>
<g>
</g>
<g>
</g>
<g>
</g>
<g>
</g>
<g>
</g>
<g>
</g>
<g>
</g>
<g>
</g>
<g>
</g>
<g>
</g>
<g>
</g>
<g>
</g>
<g>
</g>
</svg>
